<svg id="Outline" height="512" viewBox="0 0 512 512" width="512" xmlns="http://www.w3.org/2000/svg"><path d="m488 16h-464a8 8 0 0 0 -8 8v32a8 8 0 0 0 8 8h8v424a8 8 0 0 0 8 8h432a8 8 0 0 0 8-8v-424h8a8 8 0 0 0 8-8v-32a8 8 0 0 0 -8-8zm-200 464h-64v-96h64zm8-112h-80a8 8 0 0 0 -8 8v104h-16v-128h128v128h-16v-104a8 8 0 0 0 -8-8zm32-32h-144a8 8 0 0 0 -8 8v104h-128v-128h416v128h-128v-104a8 8 0 0 0 -8-8zm-280-32v-112h416v112zm0 160h128v16h-128zm288 16v-16h128v16zm128-304h-416v-112h416zm16-128h-448v-16h448z"/><path d="m136 336h-48a8 8 0 0 0 -8 8v64a8 8 0 0 0 8 8h48a8 8 0 0 0 8-8v-64a8 8 0 0 0 -8-8zm-8 64h-32v-48h32z"/><path d="m280 208h-48a8 8 0 0 0 -8 8v64a8 8 0 0 0 8 8h48a8 8 0 0 0 8-8v-64a8 8 0 0 0 -8-8zm-8 64h-32v-48h32z"/><path d="m424 208h-48a8 8 0 0 0 -8 8v64a8 8 0 0 0 8 8h48a8 8 0 0 0 8-8v-64a8 8 0 0 0 -8-8zm-8 64h-32v-48h32z"/><path d="m136 208h-48a8 8 0 0 0 -8 8v64a8 8 0 0 0 8 8h48a8 8 0 0 0 8-8v-64a8 8 0 0 0 -8-8zm-8 64h-32v-48h32z"/><path d="m376 160h48a8 8 0 0 0 8-8v-64a8 8 0 0 0 -8-8h-48a8 8 0 0 0 -8 8v64a8 8 0 0 0 8 8zm8-64h32v48h-32z"/><path d="m88 160h48a8 8 0 0 0 8-8v-64a8 8 0 0 0 -8-8h-48a8 8 0 0 0 -8 8v64a8 8 0 0 0 8 8zm8-64h32v48h-32z"/><path d="m232 160h48a8 8 0 0 0 8-8v-64a8 8 0 0 0 -8-8h-48a8 8 0 0 0 -8 8v64a8 8 0 0 0 8 8zm8-64h32v48h-32z"/><path d="m376 416h48a8 8 0 0 0 8-8v-64a8 8 0 0 0 -8-8h-48a8 8 0 0 0 -8 8v64a8 8 0 0 0 8 8zm8-64h32v48h-32z"/></svg>